<?xml version="1.0" encoding="UTF-8"?>
<!DOCTYPE svg PUBLIC "-//W3C//DTD SVG 1.1//EN" "http://www.w3.org/Graphics/SVG/1.1/DTD/svg11.dtd">
<svg xmlns="http://www.w3.org/2000/svg" version="1.1" width="960px" height="960px" style="shape-rendering:geometricPrecision; text-rendering:geometricPrecision; image-rendering:optimizeQuality; fill-rule:evenodd; clip-rule:evenodd" xmlns:xlink="http://www.w3.org/1999/xlink">
<g><path style="opacity:1" fill="#f6de1d" d="M -0.5,-0.5 C 319.5,-0.5 639.5,-0.5 959.5,-0.5C 959.5,319.5 959.5,639.5 959.5,959.5C 639.5,959.5 319.5,959.5 -0.5,959.5C -0.5,639.5 -0.5,319.5 -0.5,-0.5 Z"/></g>
<g><path style="opacity:1" fill="#000000" d="M 713.5,435.5 C 742.483,433.44 770.483,437.607 797.5,448C 823.729,461.562 844.063,481.229 858.5,507C 835.591,522.243 812.425,537.077 789,551.5C 782.593,541.93 775.093,533.096 766.5,525C 744.831,510.547 722.831,509.88 700.5,523C 688.732,533.641 684.566,546.808 688,562.5C 690.969,575.14 698.136,584.64 709.5,591C 717.009,595.255 724.676,599.255 732.5,603C 761.74,614.454 790.073,627.787 817.5,643C 872.242,676.007 893.742,724.174 882,787.5C 873.385,824.106 852.219,850.606 818.5,867C 759.378,891.254 700.711,890.254 642.5,864C 611.307,847.64 587.64,823.807 571.5,792.5C 595.584,778.041 619.751,763.707 644,749.5C 673.932,799.477 716.432,814.977 771.5,796C 790.863,784.941 798.029,768.441 793,746.5C 787.305,733.47 778.138,723.637 765.5,717C 742.855,705.844 719.855,695.51 696.5,686C 669.268,674.31 645.435,657.81 625,636.5C 609.267,616.648 600.6,593.981 599,568.5C 595.084,505.764 622.584,463.598 681.5,442C 692.236,439.493 702.903,437.327 713.5,435.5 Z"/></g>
<g><path style="opacity:1" fill="#010000" d="M 432.5,440.5 C 462.5,440.5 492.5,440.5 522.5,440.5C 522.667,546.167 522.5,651.834 522,757.5C 521.44,786.175 513.44,812.508 498,836.5C 482.233,857.149 461.733,870.982 436.5,878C 396.991,888.633 358.324,886.299 320.5,871C 289.443,856.276 266.776,833.276 252.5,802C 276.702,786.968 301.035,772.135 325.5,757.5C 332.09,770.842 340.756,782.676 351.5,793C 364.258,802.772 378.592,806.105 394.5,803C 414.287,800.88 426.12,790.047 430,770.5C 430.749,765.511 431.415,760.511 432,755.5C 432.5,650.501 432.667,545.501 432.5,440.5 Z"/></g>
</svg>
